Coordinates
version=1
nRows=6
nColumns=36
inDegrees=yes

Units are S.I. units (second, meters, Newtons, ...)
If the header above contains a line with 'inDegrees', this indicates whether rotational values are in degrees (yes) or radians (no).

endheader
time	pelvis_tilt	pelvis_list	pelvis_rotation	pelvis_tx	pelvis_ty	pelvis_tz	hip_flexion_r	hip_adduction_r	hip_rotation_r	knee_angle_r	knee_angle_r_beta	ankle_angle_r	subtalar_angle_r	mtp_angle_r	hip_flexion_l	hip_adduction_l	hip_rotation_l	knee_angle_l	knee_angle_l_beta	ankle_angle_l	subtalar_angle_l	mtp_angle_l	lumbar_extension	lumbar_bending	lumbar_rotation	arm_flex_r	arm_add_r	arm_rot_r	elbow_flex_r	pro_sup_r	arm_flex_l	arm_add_l	arm_rot_l	elbow_flex_l	pro_sup_l
      7.53333330	      3.41726044	      8.75746701	      1.83652772	      0.69920749	      0.88149827	     -0.12051240	     26.22212567	     -0.44732399	     -0.56968003	     59.64138035	      1.04093846	     24.12364695	    -26.32664848	     -7.49999987	     35.19555844	      2.53372453	     12.27342258	      5.55230943	      0.09690608	     -5.01227392	    -22.62500869	     -7.49999987	    -29.72205063	     -2.79441064	     -7.06313729	     52.93673603	      9.83789266	     72.07914181	    116.99275050	     91.12510931	     40.96313071	     10.27726434	     72.87805635	    120.29463882	     77.74626437
      7.55000000	      3.41926528	      8.54744344	      1.84519358	      0.70258234	      0.88785509	     -0.11761690	     24.64972044	      0.05144244	     -0.19491006	     56.89920317	      0.99307844	     23.50946257	    -26.74774656	     -7.49999987	     34.24570042	      2.18623255	     12.40882508	      4.54925624	      0.07939950	     -5.01613410	    -21.23274902	     -7.49999987	    -29.23192657	     -2.80686175	     -7.02061111	     52.82744203	     10.09391519	     72.35579375	    116.60557133	     93.49771271	     40.58628544	     10.07303983	     72.86670257	    120.20597799	     79.29778617
      7.56666670	      3.10735550	      8.56052064	      1.94838605	      0.69937024	      0.88722964	     -0.12045629	     24.34735203	     -0.02889115	     -0.15497695	     55.43348542	      0.96749684	     23.27083331	    -26.89126726	     -7.49999987	     34.37684802	      2.23226953	     12.18239050	      4.77819830	      0.08339529	     -5.47320657	    -21.33426433	     -7.49999987	    -28.47006309	     -2.82000242	     -6.82348064	     52.90131050	     10.29848648	     72.66324390	    116.49870746	     93.53640718	     40.73443143	     10.20129692	     72.87025167	    120.34079378	     79.28936179
      7.58333330	      2.73997833	      8.31865525	      1.75067537	      0.69903019	      0.89121104	     -0.12044339	     24.22383724	      0.18555879	     -0.09920344	     54.12258232	      0.94461726	     22.77609523	    -27.05459540	     -7.49999987	     34.59752275	      1.98216713	     11.91410604	      5.26856625	      0.09195383	     -5.59018319	    -21.38748729	     -7.49999987	    -27.45819924	     -2.74204943	     -6.57006833	     52.92168444	     10.42119290	     72.94577928	    116.72459495	     92.39793034	     40.83855622	     10.28343345	     72.40144068	    120.71411748	     78.34297039
      7.60000000	      2.92957800	      7.85040860	      1.60615862	      0.70186619	      0.89867058	     -0.11801686	     22.87279067	      0.72193589	     -0.23066997	     51.95007182	      0.90669980	     21.97982661	    -27.43373461	     -7.49999987	     33.69452984	      1.51777235	     11.89732366	      5.18681770	      0.09052705	     -5.89134754	    -21.32586397	     -7.49999987	    -26.76085669	     -2.57095391	     -6.19944035	     53.07822641	     10.68415795	     73.35676215	    116.07627937	     92.63721207	     40.80560688	     10.52717254	     72.32659862	    120.21033622	     78.37348896
      7.61666670	      2.91095350	      7.73377567	      1.54252589	      0.70467501	      0.90414280	     -0.11491274	     21.45596501	      0.99423256	     -0.29088865	     49.35685797	      0.86143968	     21.12268239	    -27.65835102	     -7.49999987	     32.61788668	      1.32442154	     11.90801511	      4.35121923	      0.07594310	     -6.00263296	    -20.90606530	     -7.49999987	    -25.92628539	     -2.93025867	     -5.85187574	     52.73645736	     10.91342859	     73.64376268	    115.73584901	     92.26410807	     40.51887696	     10.21995205	     72.02402682	    120.16807907	     77.92180209
